<svg width="21" height="21" xmlns="http://www.w3.org/2000/svg">

 <g>
  <title>background</title>
  <rect fill="none" id="canvas_background" height="23" width="23" y="-1" x="-1"/>
 </g>
 <g>
  <title>Layer 1</title>
  <path stroke="null" id="svg_1" d="m20.71482,19.997915c-0.059935,-0.979751 -0.664276,-4.846364 -0.669271,-4.87256c-0.209252,-1.077003 -1.100171,-1.859442 -2.14766,-1.886152c-0.684254,0 -1.268618,0.523931 -1.86297,0.895922l-2.287508,0c-0.599347,-0.387709 -1.178716,-0.895922 -1.86297,-0.895922c-1.046295,0.027187 -1.935526,0.809966 -2.142665,1.886152c0,0.026197 -0.614331,3.892809 -0.674265,4.87256c-0.059935,0.979751 0.884037,1.047862 1.178716,1.047862c0.49575,0.000362 0.971521,-0.204925 1.323558,-0.571085c0.499676,-0.64935 0.933233,-1.351748 1.293591,-2.095725l4.060576,0c0.358504,0.745098 0.792182,1.447695 1.293591,2.095725c0.349884,0.366338 0.824222,0.571777 1.318563,0.571085c0.294679,-0.015718 1.243645,-0.015718 1.178716,-1.047862zm-4.639945,-14.54957l-2.732023,0c0.882923,-0.433585 1.444601,-1.366491 1.438433,-2.389126c0,-1.671341 -1.193699,-2.844946 -2.901838,-2.844946c-1.063841,0 -2.392393,0.796375 -3.226485,2.195272c-0.839086,-1.383178 -2.167638,-2.195272 -3.241468,-2.195272c-1.708139,0 -2.901838,1.173606 -2.901838,2.844946c-0.006168,1.022635 0.55551,1.955542 1.438433,2.389126l-2.722034,0c-0.25653,0 -0.464494,0.218154 -0.464494,0.487256l0,2.682528c0.002737,0.267058 0.209901,0.482043 0.464494,0.482043l6.263176,0l0,-3.667545l2.32247,0l0,3.667545l6.263176,0c0.122731,0.001373 0.240893,-0.048794 0.328147,-0.13934c0.087255,-0.090546 0.136346,-0.213953 0.136346,-0.342703l0,-2.682528c0,-0.269102 -0.207963,-0.487256 -0.464494,-0.487256l0,0zm-11.927005,-2.389126c0.004051,-0.334226 0.144977,-0.650466 0.386839,-0.868081c0.241856,-0.21761 0.561273,-0.315553 0.876785,-0.26885c0.709227,0 1.997823,0.932598 2.332459,2.656331c-1.798041,-0.07859 -3.596082,-0.408666 -3.596082,-1.5194zm5.399117,1.5194c0.334635,-1.723734 1.623231,-2.656331 2.332459,-2.656331c0.317085,-0.05002 0.639283,0.046399 0.883482,0.264391c0.244194,0.217987 0.386474,0.536202 0.39013,0.872539c0,1.110734 -1.798041,1.440811 -3.606071,1.5194zm-7.85644,11.11782c0,0.53617 0.41288,0.97163 0.923993,0.974512l4.874689,0l0,-6.350046l-5.798682,0l0,5.375534zm8.121152,-3.19598c0.607143,-0.466451 1.34016,-0.71787 2.09272,-0.717786c0.827214,0.046881 1.620634,0.359679 2.272524,0.895922l1.458411,0l0,-2.35769l-5.823655,0l0,2.179554z" fill-rule="evenodd"/>
 </g>
</svg>