<svg height="800" width="800" xmlns="http://www.w3.org/2000/svg" viewBox="0 0 512.001 512.001"><path d="M352.279 142.532a135.105 135.105 0 00-9.642-.344c-11.591 0-22.409 1.72-32.318 4.881-4.657 58.407-30.566 109.698-60.361 141.204 15.305 63.95 58.949 110.643 92.681 110.643 2.907 0 5.922-.397 9.006-1.148 38.855-9.467 89.276-76.759 89.276-156.697-.002-51.532-29.862-94.339-88.642-98.539z" fill="#f58fbf"/><path d="M360.791 232.904c-7.877 0-14.715 4.439-18.154 10.951l-.022.038c-3.433-6.533-10.283-10.989-18.176-10.989-11.334 0-20.21 9.187-20.21 20.521 0 5.364 1.556 8.393 2.816 10.945 5.199 10.533 35.57 35.7 35.57 35.7l.022-.017c.909-.75 30.668-25.381 35.549-35.683 1.211-2.555 2.859-5.816 2.859-10.945 0-11.334-8.92-20.521-20.254-20.521z" fill="#c60024"/><path d="M201.569 8.049a166.36 166.36 0 00-10.493-.33c-72.225 0-119.994 54.458-119.994 120.729 0 106.006 69.204 192.715 119.994 192.715 3.178 0 6.458-.387 9.812-1.124 15.654-3.444 32.93-14.699 49.07-31.766 29.796-31.507 55.705-82.797 60.361-141.204.489-6.135.751-12.345.751-18.621 0-63.291-36.889-115.803-109.501-120.399z" fill="#b3d8f5"/><path d="M91.166 128.448c0-63.29 43.571-115.803 110.402-120.399a166.36 166.36 0 00-10.493-.33c-72.225 0-119.994 54.458-119.994 120.729 0 106.006 69.204 192.715 119.994 192.715 3.178 0 6.458-.387 9.812-1.124-49.352-10.416-109.721-92.581-109.721-191.591z" fill="#97c7ef"/><path d="M215.63 113.728c-10.654 0-19.902 6.004-24.554 14.811l-.03.051c-4.643-8.836-13.909-14.863-24.584-14.863-15.329 0-27.335 12.427-27.335 27.756 0 7.255 2.105 11.351 3.809 14.803 7.032 14.246 48.111 48.286 48.111 48.286l.03-.025c1.229-1.015 41.479-34.328 48.081-48.262 1.637-3.457 3.868-7.867 3.868-14.803-.002-15.327-12.067-27.754-27.396-27.754z" fill="#c60024"/><path d="M268.418 288.273c29.796-31.507 55.705-82.797 60.361-141.204 7.351-2.345 15.204-3.892 23.499-4.538a135.105 135.105 0 00-9.642-.344c-11.591 0-22.409 1.72-32.318 4.881-4.657 58.407-30.566 109.698-60.361 141.204 15.305 63.95 58.949 110.643 92.681 110.643 2.907 0 5.922-.397 9.006-1.148-32.008-7.521-69.317-51.38-83.226-109.494z" fill="#ef72ac"/><g fill="#f58fbf"><ellipse transform="rotate(-45.001 330.13 413.17)" cx="330.134" cy="413.164" rx="14.521" ry="10.104"/><ellipse transform="rotate(45.001 355.163 413.173)" cx="355.156" cy="413.175" rx="14.521" ry="10.104"/></g><g fill="#b3d8f5"><ellipse transform="rotate(-45.001 177.657 334.574)" cx="177.66" cy="334.57" rx="15.571" ry="10.831"/><ellipse transform="rotate(45.001 204.495 334.57)" cx="204.49" cy="334.571" rx="15.571" ry="10.831"/></g><path d="M215.63 113.728c-10.654 0-19.902 6.004-24.554 14.811v76.01c1.229-1.015 41.479-34.328 48.081-48.262 1.637-3.457 3.868-7.867 3.868-14.803-.001-15.329-12.066-27.756-27.395-27.756zm145.161 119.176c-7.877 0-14.715 4.439-18.154 10.951v56.198c.909-.75 30.668-25.381 35.549-35.683 1.211-2.555 2.859-5.816 2.859-10.945 0-11.334-8.92-20.521-20.254-20.521z" fill="#a50020"/><path d="M246.24 54.617a81.086 81.086 0 00-11.278-6.297l6.44-14.03a96.514 96.514 0 0113.43 7.504l-8.592 12.823zm31.572 42.369c-5.444-16.201-14.545-29.354-27.049-39.098l9.489-12.177c14.726 11.474 25.857 27.505 32.194 46.357l-14.634 4.918zm133.521 134.891c-2.798-14.176-7.951-26.384-16.215-38.416l12.724-8.74c9.495 13.825 15.416 27.858 18.635 44.167l-15.144 2.989z" fill="#fff"/><path d="M215.607 106.107a35.361 35.361 0 00-24.561 9.873 35.361 35.361 0 00-24.561-9.873c-19.315 0-35.028 15.902-35.028 35.448 0 8.894 2.596 14.146 4.491 17.981l.111.224c7.537 15.27 45.731 47.18 50.062 50.769l4.912 4.07 4.922-4.058c4.37-3.603 42.903-35.64 50.131-50.892l.189-.399c1.759-3.701 4.417-9.292 4.417-17.694.002-19.547-15.738-35.449-35.085-35.449zm16.727 46.515l-.198.416c-3.906 8.244-25.511 28.246-41.078 41.469-15.479-13.209-37.028-33.217-41.156-41.581l-.114-.231c-1.488-3.011-2.894-5.854-2.894-11.142 0-11.221 8.606-20.011 19.591-20.011 7.46 0 14.253 4.108 17.728 10.722l6.833 13.002 6.833-13.002a19.98 19.98 0 0117.728-10.722c11.019 0 19.649 8.79 19.649 20.011.001 4.921-1.485 8.046-2.922 11.069zm92.117 72.607c-15.393 0-27.916 12.663-27.916 28.226 0 7.047 2.124 11.343 3.53 14.188l.082.166c5.639 11.425 32.264 33.829 37.543 38.205l4.912 4.07 4.922-4.058c5.331-4.395 32.196-26.897 37.612-38.327l.139-.293c1.379-2.899 3.462-7.282 3.462-13.95 0-15.564-12.543-28.226-27.959-28.226a28.161 28.161 0 00-18.164 6.608 28.15 28.15 0 00-18.163-6.609zm36.329 15.437c7.022 0 12.522 5.617 12.522 12.789 0 3.185-.912 5.101-1.967 7.321l-.148.312c-2.534 5.347-16.873 18.866-28.56 28.884-11.629-10.013-25.952-23.555-28.638-28.997l-.085-.172c-1.08-2.184-1.932-3.91-1.932-7.349 0-7.172 5.481-12.789 12.478-12.789 4.768 0 9.11 2.626 11.332 6.854l6.832 13 6.833-13a12.773 12.773 0 0111.333-6.853z"/><path d="M318.626 136.932c.102-2.849.162-5.684.162-8.485 0-35.647-11.433-67.761-32.192-90.429C263.82 13.146 230.788 0 191.076 0c-36.35 0-69.255 13.457-92.656 37.893C75.813 61.5 63.363 93.659 63.363 128.448c0 50.297 15.014 100.173 42.278 140.438 17.409 25.71 37.862 44.325 58.034 53.517-8.424 9.157-9.585 21.527-2.475 28.638 3.146 3.145 7.322 4.675 11.795 4.675 1.407 0 2.842-.157 4.285-.457a83.03 83.03 0 00-.097 4.069c0 11.821 4.11 18.173 7.414 23.277 2.866 4.428 4.936 7.627 4.936 14.889 0 7.263-2.071 10.461-4.936 14.89-3.303 5.104-7.414 11.455-7.414 23.276 0 11.822 4.11 18.175 7.414 23.278 2.866 4.429 4.936 7.629 4.936 14.892 0 7.264-2.071 10.463-4.937 14.893-3.303 5.104-7.413 11.456-7.413 23.278h15.437c0-7.264 2.071-10.463 4.937-14.893 3.303-5.104 7.413-11.456 7.413-23.278 0-11.821-4.11-18.174-7.413-23.277-2.866-4.429-4.937-7.629-4.937-14.893 0-7.262 2.071-10.46 4.936-14.889 3.303-5.105 7.414-11.456 7.414-23.277 0-11.821-4.11-18.173-7.414-23.276-2.866-4.428-4.936-7.627-4.936-14.89 0-4.292.334-7.28.854-9.722 4.853 4.028 10.469 6.11 15.683 6.11 4.474 0 8.651-1.53 11.796-4.676 7.188-7.188 5.924-19.752-2.754-28.939 9.182-4.378 18.547-10.818 27.78-19.146 13.979 45.408 42.334 83.039 71.764 97.413-.071.07-.147.131-.218.202-3.847 3.847-6.442 8.623-7.309 13.448-1.034 5.765.491 11.188 4.183 14.881 3.035 3.035 7.062 4.514 11.369 4.514 1.671 0 3.385-.229 5.098-.67a111.837 111.837 0 00-.065 3.866c0 11.037 2.53 16.829 4.762 21.937 1.94 4.44 3.471 7.947 3.471 15.759 0 7.811-1.531 11.318-3.471 15.758-2.231 5.11-4.762 10.902-4.762 21.937h15.437c0-7.812 1.531-11.319 3.471-15.759 2.232-5.11 4.762-10.901 4.762-21.936s-2.53-16.829-4.762-21.937c-1.94-4.44-3.471-7.947-3.471-15.759 0-3.233.124-5.604.327-7.484 4.124 2.832 8.668 4.288 12.94 4.288 4.306 0 8.333-1.479 11.368-4.514 3.694-3.694 5.219-9.116 4.185-14.881-.866-4.825-3.461-9.601-7.309-13.448-.164-.164-.338-.307-.504-.466 15.745-7.99 31.776-23.012 45.727-43.393 22.998-33.6 35.664-74.668 35.664-115.639 0-29.547-9.494-56.185-26.733-75.009-18.928-20.668-46.338-31.593-79.268-31.593-8.238-.001-16.271.839-24.009 2.462zM182.36 333.404c-.542 1.059-1.34 2.215-2.495 3.369-3.558 3.558-7.155 3.767-7.745 3.357-.426-.603-.214-4.198 3.345-7.757 2.766-2.766 5.554-3.509 6.936-3.509.331 0 .558.049.708.116a31.554 31.554 0 01-.749 4.424zm27.683 6.714c-.604.422-4.2.214-7.758-3.345-2.506-2.506-3.349-5.024-3.486-6.505.004-.215-.013-.425-.016-.638.017-.286.071-.494.146-.601.136-.096.424-.158.831-.158 1.393 0 4.172.748 6.927 3.503 3.56 3.559 3.77 7.153 3.356 7.744zm34.305-57.148c-18.315 19.366-37.733 30.474-53.274 30.474-22.589 0-50.427-20.39-72.653-53.214-25.552-37.737-39.623-84.538-39.623-131.783.002-65.482 47.22-113.01 112.278-113.01 68.205 0 112.276 44.359 112.276 113.01 0 5.904-.245 11.964-.727 18.009-3.828 48.011-23.214 95.865-52.326 129.896a178.285 178.285 0 01-5.951 6.618zm90.372 127.183c-.357 1.285-1.212 3.01-2.907 4.705-2.724 2.725-5.531 3.281-6.457 3.084-.199-.926.359-3.733 3.084-6.456 2.67-2.67 5.403-3.251 6.388-3.091a60.96 60.96 0 01-.108 1.758zm25.198 7.788c-.922.198-3.731-.36-6.457-3.084-2.236-2.235-3.001-4.509-3.098-5.77.002-.13-.01-.256-.011-.386.005-.107.008-.219.025-.301.931-.193 3.734.361 6.457 3.084 2.725 2.726 3.283 5.531 3.084 6.457zm73.283-176.87c0 81.421-55.627 150.127-90.564 150.127-14.343 0-31.626-10.452-47.416-28.676-16.625-19.187-29.594-44.653-36.763-72.073.061-.068.12-.138.182-.206.372-.412.735-.834 1.103-1.249.657-.742 1.314-1.483 1.963-2.237.41-.477.811-.962 1.216-1.443a205.38 205.38 0 001.783-2.134c.425-.519.843-1.045 1.263-1.568.559-.697 1.118-1.392 1.669-2.098.429-.55.853-1.105 1.278-1.66.532-.695 1.063-1.39 1.588-2.094.428-.574.852-1.154 1.276-1.733a191.841 191.841 0 002.783-3.898 209.847 209.847 0 002.708-3.973c.474-.712.945-1.428 1.412-2.149a217.373 217.373 0 002.585-4.076c.397-.641.794-1.282 1.187-1.929.446-.736.886-1.477 1.324-2.219.386-.652.773-1.304 1.153-1.962.434-.75.861-1.508 1.287-2.265.372-.659.745-1.316 1.111-1.98.425-.771.842-1.549 1.26-2.327.355-.66.713-1.317 1.062-1.982.421-.802.832-1.611 1.245-2.418.332-.649.669-1.296.996-1.949.437-.874.862-1.757 1.29-2.637.289-.596.586-1.188.871-1.787a259.854 259.854 0 002-4.307c.231-.509.453-1.025.68-1.537.458-1.03.918-2.06 1.364-3.099.281-.654.55-1.313.825-1.971.364-.87.732-1.737 1.087-2.612.285-.702.56-1.41.839-2.115.331-.836.664-1.67.987-2.511.28-.729.55-1.461.823-2.193.308-.825.617-1.65.918-2.479.27-.744.53-1.492.793-2.24.289-.824.579-1.648.86-2.475.256-.754.506-1.512.756-2.268a201.566 201.566 0 001.524-4.772c.257-.835.512-1.669.762-2.507a242.859 242.859 0 001.385-4.827 260.388 260.388 0 001.872-7.157c.213-.867.419-1.735.624-2.604.178-.758.357-1.517.529-2.277.2-.886.391-1.774.581-2.662.16-.744.321-1.487.473-2.232.188-.917.365-1.836.543-2.755.14-.721.283-1.442.416-2.164.177-.956.341-1.914.505-2.872.118-.689.243-1.376.356-2.064.171-1.044.327-2.089.485-3.135.091-.603.189-1.205.276-1.808.198-1.375.378-2.751.551-4.128.035-.275.075-.55.109-.825.199-1.619.382-3.239.548-4.86 7.978-2.068 16.402-3.112 25.11-3.112 55.019-.002 90.567 35.783 90.567 91.163z"/></svg>