<svg xmlns="http://www.w3.org/2000/svg" viewBox="0 0 512.001 512.001"><path d="M288.248 256.375h149.353V504.36H288.248zm-215.888 0h149.353V504.36H72.36z" fill="#acabb1"/><path d="M202.15 256.378H72.36v20.755h129.79v227.23h19.509V256.378zm235.608 0H288.251v247.985h19.51v-227.23h129.997z" fill="#898890"/><g fill="#c60024"><path d="M321.842 56.121c-36.925 0-66.86 29.934-66.86 66.859v66.86h66.86c36.925 0 66.859-29.934 66.859-66.859.001-36.925-29.934-66.86-66.859-66.86z"/><path d="M188.123 56.121c36.925 0 66.86 29.934 66.86 66.859v66.86h-66.86c-36.925 0-66.859-29.934-66.859-66.859s29.933-66.86 66.859-66.86z"/></g><path d="M288.251 189.841v66.537h161.773v-66.537zm-66.538 2.754v-2.754H59.94v66.537h161.773z" fill="#57565c"/><path fill="#c60024" d="M221.713 189.841v314.522h66.538V189.841z"/><path d="M366.965 182.204c17.837-13.624 29.374-35.096 29.374-59.223 0-41.078-33.419-74.497-74.497-74.497-29.306 0-54.704 17.017-66.859 41.683-12.155-24.666-37.553-41.683-66.859-41.683-41.078 0-74.497 33.419-74.497 74.497 0 24.126 11.537 45.599 29.374 59.223H52.303v81.813h12.42v247.985h380.519V264.016h12.42v-81.813l-90.697.001zM214.077 496.726H79.997v-232.71h134.079v232.71zm0-247.985h-146.5v-51.264h146.499l.001 51.264zm0-66.537h-25.953c-32.656 0-59.223-26.567-59.223-59.223s26.567-59.223 59.223-59.223c32.655 0 59.222 26.567 59.222 59.223v59.223h-33.269zm66.537 66.537v247.984h-51.263V197.477h51.262v51.264zm0-66.537H262.62v-59.223c0-32.656 26.567-59.223 59.222-59.223 32.656 0 59.223 26.567 59.223 59.223s-26.567 59.223-59.223 59.223h-41.228zm149.353 314.522H295.889v-232.71h134.079v232.71h-.001zm12.421-247.985h-146.5v-51.264h146.499l.001 51.264z"/><path d="M405.413 429.271h15.274v16.936h-15.274zm15.27 61.038h-44.206v-15.274h28.932v-18.538h15.274zM88.755 332.442h15.274v71.596H88.755zm0-35.254h15.274v25.099H88.755z" fill="#fff"/><path d="M451.082 129.97l-18.461-18.463 10.801-10.801 7.66 7.662 7.583-7.583 10.799 10.801zM60.998 89.919L42.537 71.458l10.799-10.8 7.662 7.66 7.581-7.582 10.801 10.8zm173.777-60.656L216.313 10.8 227.114 0l7.661 7.661 7.583-7.582 10.8 10.8z" fill="#d80029"/><path d="M321.842 87.912c-19.368 0-35.069 15.701-35.069 35.069v35.069h35.069c19.368 0 35.069-15.701 35.069-35.069 0-19.368-15.701-35.069-35.069-35.069zm-133.719 0c19.368 0 35.069 15.701 35.069 35.069v35.069h-35.069c-19.368 0-35.069-15.701-35.069-35.069 0-19.368 15.701-35.069 35.069-35.069z" fill="#820018"/></svg>