<svg width="24" height="24" xmlns="http://www.w3.org/2000/svg">
 <g>
  <title>background</title>
  <rect fill="none" id="canvas_background" height="4.189777" width="4.189777" y="-1" x="-1"/>
 </g>
 <g>
  <title>Layer 1</title>
  <g stroke-width="0" id="SVGRepo_bgCarrier"/>
  <g stroke-linejoin="round" stroke-linecap="round" id="SVGRepo_tracerCarrier"/>
  <g id="SVGRepo_iconCarrier">
   <rect fill-opacity="0" id="svg_1" fill="#000000" height="24" width="24"/>
   <path id="svg_2" fill="#0070cc" d="m0.20442,12.069061c0,-6.552663 5.311978,-11.864641 11.864641,-11.864641c6.552604,0 11.864641,5.311978 11.864641,11.864641c0,6.552604 -5.312037,11.864641 -11.864641,11.864641c-6.552663,0 -11.864641,-5.312037 -11.864641,-11.864641zm11.517126,-2.720432c0.463314,-0.46335 0.463314,-1.214571 0,-1.677921c-0.463314,-0.463338 -1.214583,-0.463338 -1.677898,0l-3.456134,3.456182c-0.01788,0.017797 -0.035143,0.036069 -0.051801,0.054696c-0.244756,0.21736 -0.398972,0.534383 -0.398972,0.887475c0,0.353092 0.154217,0.670115 0.398972,0.887475c0.016646,0.018627 0.033921,0.036899 0.051801,0.054696l3.456134,3.45617c0.463314,0.463314 1.214583,0.463314 1.677898,0c0.463314,-0.463314 0.463314,-1.214583 0,-1.677898l-1.533979,-1.533979l6.627351,0c0.655284,0 1.186464,-0.53118 1.186464,-1.186464c0,-0.655284 -0.53118,-1.186464 -1.186464,-1.186464l-6.627351,0l1.533979,-1.533968z" clip-rule="evenodd" fill-rule="evenodd" stroke="null"/>
  </g>
 </g>
</svg>