<svg width="23.999999999999996" height="23.999999999999996" xmlns="http://www.w3.org/2000/svg">
 <g>
  <title>background</title>
  <rect x="-1" y="-1" width="5.75" height="5.75" id="canvas_background" fill="none"/>
 </g>
 <g>
  <title>Layer 1</title>
  <g id="SVGRepo_bgCarrier" stroke-width="0"/>
  <g id="SVGRepo_tracerCarrier" stroke-linecap="round" stroke-linejoin="round"/>
  <g id="SVGRepo_iconCarrier">
   <rect width="24" height="24" fill="none" id="svg_1"/>
   <path fill-rule="evenodd" clip-rule="evenodd" d="m0.214286,12.081169c0,-6.553901 5.312982,-11.866883 11.866883,-11.866883c6.553842,0 11.866883,5.312982 11.866883,11.866883c0,6.553842 -5.313041,11.866883 -11.866883,11.866883c-6.553901,0 -11.866883,-5.313041 -11.866883,-11.866883zm12.214464,2.720958c-0.463402,0.463402 -0.463402,1.214813 0,1.678215c0.463402,0.463402 1.214813,0.463402 1.678215,0l3.456823,-3.456823c0.0178,-0.0178 0.035126,-0.036075 0.05174,-0.054706c0.244814,-0.217401 0.399083,-0.534484 0.399083,-0.887643c0,-0.353158 -0.154269,-0.670242 -0.399083,-0.887643c-0.016614,-0.018631 -0.033939,-0.036906 -0.05174,-0.054706l-3.456823,-3.456835c-0.463402,-0.463426 -1.214813,-0.463426 -1.678215,0c-0.463402,0.463437 -0.463402,1.214801 0,1.678238l1.534269,1.534257l-6.628604,0c-0.655384,0 -1.186688,0.53128 -1.186688,1.186688c0,0.655408 0.531304,1.186688 1.186688,1.186688l6.628604,0l-1.534269,1.534269l0,0.000001z" fill="#0070cc" id="svg_2" stroke="null"/>
  </g>
 </g>
</svg>